<svg width="1283" height="1080" viewBox="0 0 1283 1080" fill="none" xmlns="http://www.w3.org/2000/svg">
<path opacity="0.0344828" d="M574.812 753.311C436.391 637.161 322.003 519.039 248.956 421.975C212.427 373.436 186.276 330.213 172.612 295.171C165.78 277.65 162.092 262.23 161.759 249.246C161.426 236.273 164.442 225.805 170.938 218.063C177.434 210.321 187.22 205.533 200.054 203.608C212.898 201.681 228.724 202.635 247.166 206.321C284.048 213.693 331.155 231.942 385.3 259.487C493.574 314.569 629.765 406.708 768.186 522.857C906.608 639.007 1021 757.129 1094.04 854.193C1130.57 902.732 1156.72 945.954 1170.39 980.996C1177.22 998.517 1180.91 1013.94 1181.24 1026.92C1181.57 1039.9 1178.56 1050.36 1172.06 1058.11C1165.57 1065.85 1155.78 1070.64 1142.95 1072.56C1130.1 1074.49 1114.27 1073.53 1095.83 1069.85C1058.95 1062.47 1011.84 1044.23 957.699 1016.68C849.425 961.6 713.234 869.46 574.812 753.311Z" stroke="#073954" stroke-opacity="0.05" stroke-width="2.28207"/>
<path opacity="0.0689655" d="M565.138 739.222C437.366 611.45 333.708 483.808 269.399 380.747C237.24 329.208 214.956 283.871 204.397 247.771C199.118 229.721 196.788 214.038 197.588 201.075C198.387 188.122 202.304 177.957 209.45 170.811C216.596 163.664 226.762 159.747 239.715 158.948C252.678 158.148 268.361 160.478 286.411 165.757C322.511 176.316 367.848 198.601 419.386 230.76C522.447 295.069 650.089 398.727 777.861 526.499C905.633 654.27 1009.29 781.913 1073.6 884.974C1105.76 936.512 1128.04 981.849 1138.6 1017.95C1143.88 1036 1146.21 1051.68 1145.41 1064.64C1144.61 1077.6 1140.7 1087.76 1133.55 1094.91C1126.4 1102.06 1116.24 1105.97 1103.28 1106.77C1090.32 1107.57 1074.64 1105.24 1056.59 1099.96C1020.49 1089.4 975.152 1067.12 923.613 1034.96C820.552 970.652 692.91 866.993 565.138 739.222Z" stroke="#073954" stroke-opacity="0.05" stroke-width="2.28207"/>
<path opacity="0.103448" d="M556.271 724.32C440.122 585.898 347.983 449.708 292.901 341.434C265.356 287.289 247.108 240.181 239.736 203.299C236.05 184.858 235.096 169.031 237.023 156.187C238.948 143.353 243.735 133.568 251.477 127.072C259.219 120.575 269.688 117.559 282.661 117.892C295.645 118.225 311.065 121.913 328.586 128.745C363.628 142.41 406.85 168.561 455.39 205.09C552.454 278.137 670.576 392.525 786.725 530.946C902.875 669.368 995.014 805.559 1050.1 913.833C1077.64 967.978 1095.89 1015.08 1103.26 1051.97C1106.95 1070.41 1107.9 1086.23 1105.98 1099.08C1104.05 1111.91 1099.26 1121.7 1091.52 1128.2C1083.78 1134.69 1073.31 1137.71 1060.34 1137.37C1047.35 1137.04 1031.93 1133.35 1014.41 1126.52C979.369 1112.86 936.147 1086.71 887.607 1050.18C790.543 977.13 672.421 862.741 556.271 724.32Z" stroke="#073954" stroke-opacity="0.05" stroke-width="2.28207"/>
<path opacity="0.137931" d="M548.285 708.683C444.641 560.666 364.723 416.963 319.288 304.3C296.566 247.96 282.493 199.442 278.364 162.058C276.299 143.365 276.728 127.516 279.767 114.889C282.803 102.271 288.425 92.9403 296.704 87.1434C304.983 81.3465 315.674 79.2541 328.569 80.7165C341.474 82.1799 356.514 87.1976 373.374 95.5311C407.091 112.198 447.869 142.017 493.041 182.637C583.369 263.865 691.072 388.113 794.715 536.131C898.358 684.149 978.277 827.853 1023.71 940.515C1046.43 996.855 1060.51 1045.37 1064.64 1082.76C1066.7 1101.45 1066.27 1117.3 1063.23 1129.93C1060.2 1142.54 1054.57 1151.88 1046.3 1157.67C1038.02 1163.47 1027.33 1165.56 1014.43 1164.1C1001.53 1162.63 986.486 1157.62 969.627 1149.28C935.909 1132.62 895.13 1102.8 849.959 1062.18C759.631 980.95 651.928 856.701 548.285 708.683Z" stroke="#073954" stroke-opacity="0.05" stroke-width="2.28207"/>
<path opacity="0.172414" d="M541.234 692.39C450.886 535.903 383.796 385.781 348.353 269.587C330.628 211.481 320.837 161.921 319.982 124.319C319.554 105.518 321.363 89.7663 325.491 77.452C329.615 65.147 336.029 56.3419 344.781 51.2886C353.534 46.2353 364.367 45.0827 377.086 47.6634C389.814 50.246 404.359 56.5554 420.428 66.3265C452.565 85.8683 490.589 119.128 532.048 163.531C614.953 252.322 711.417 385.485 801.765 541.972C892.114 698.46 959.204 848.582 994.647 964.776C1012.37 1022.88 1022.16 1072.44 1023.02 1110.04C1023.45 1128.84 1021.64 1144.6 1017.51 1156.91C1013.39 1169.22 1006.97 1178.02 998.218 1183.07C989.466 1188.13 978.633 1189.28 965.915 1186.7C953.187 1184.12 938.641 1177.81 922.572 1168.04C890.435 1148.49 852.411 1115.24 810.952 1070.83C728.047 982.041 631.582 848.878 541.234 692.39Z" stroke="#073954" stroke-opacity="0.05" stroke-width="2.28207"/>
<path opacity="0.206897" d="M535.174 675.525C458.808 511.758 405.058 356.361 379.876 237.52C367.284 178.09 361.849 127.865 364.275 90.3318C365.487 71.5646 368.662 56.0307 373.847 44.123C379.028 32.2243 386.185 24.0118 395.345 19.7405C404.504 15.4693 415.397 15.2652 427.842 18.9446C440.297 22.6268 454.237 30.1798 469.393 41.3143C499.704 63.5826 534.685 100.03 572.116 147.877C646.967 243.556 731.458 384.619 807.824 548.386C884.19 712.152 937.94 867.551 963.122 986.391C975.715 1045.82 981.149 1096.04 978.724 1133.58C977.511 1152.35 974.337 1167.88 969.152 1179.79C963.971 1191.69 956.813 1199.9 947.654 1204.17C938.494 1208.44 927.602 1208.65 915.157 1204.97C902.702 1201.28 888.762 1193.73 873.606 1182.6C843.295 1160.33 808.313 1123.88 770.882 1076.03C696.031 980.355 611.54 839.291 535.174 675.525Z" stroke="#073954" stroke-opacity="0.05" stroke-width="2.28207"/>
<path opacity="0.241379" d="M530.153 658.173C468.352 488.374 428.349 328.883 413.621 208.3C406.256 147.999 405.22 97.4915 410.907 60.3122C413.751 41.7221 418.267 26.524 424.471 15.1135C430.669 3.71167 438.515 -3.8458 448.012 -7.30252C457.509 -10.7592 468.377 -10.0132 480.455 -5.26304C492.541 -0.509413 505.77 8.22986 519.898 20.6429C548.153 45.4682 579.824 84.8255 612.943 135.753C679.17 237.592 751.045 385.482 812.847 555.281C874.649 725.08 914.651 884.572 929.379 1005.15C936.744 1065.46 937.781 1115.96 932.094 1153.14C929.25 1171.73 924.734 1186.93 918.531 1198.34C912.332 1209.74 904.486 1217.3 894.989 1220.76C885.492 1224.21 874.624 1223.47 862.547 1218.72C850.46 1213.96 837.231 1205.22 823.103 1192.81C794.848 1167.99 763.176 1128.63 730.058 1077.7C663.831 975.863 591.955 827.972 530.153 658.173Z" stroke="#073954" stroke-opacity="0.05" stroke-width="2.28207"/>
<path opacity="0.275862" d="M526.206 640.435C479.438 465.896 453.489 303.526 449.326 182.118C447.245 121.404 450.615 70.9988 459.521 34.4567C463.974 16.1851 469.798 1.43851 476.972 -9.3879C484.14 -20.2062 492.615 -27.0511 502.377 -29.6669C512.139 -32.2827 522.901 -30.5923 534.519 -24.8076C546.145 -19.0187 558.562 -9.15968 571.554 4.43746C597.538 31.6309 625.658 73.5987 654.212 127.219C711.311 234.443 770.023 388.034 816.791 562.573C863.559 737.113 889.509 899.484 893.671 1020.89C895.753 1081.6 892.383 1132.01 883.477 1168.55C879.024 1186.82 873.201 1201.57 866.027 1212.4C858.858 1223.22 850.383 1230.06 840.621 1232.68C830.859 1235.29 820.097 1233.6 808.48 1227.82C796.853 1222.03 784.436 1212.17 771.444 1198.57C745.46 1171.38 717.339 1129.41 688.785 1075.79C631.686 968.567 572.974 814.975 526.206 640.435Z" stroke="#073954" stroke-opacity="0.05" stroke-width="2.28207"/>
<path opacity="0.310345" d="M523.368 622.398C491.99 444.447 480.291 280.433 486.726 159.124C489.943 98.4602 497.694 48.5402 509.751 12.9133C515.779 -4.90065 522.866 -19.0835 530.956 -29.2435C539.041 -39.3958 548.079 -45.4761 558.032 -47.2312C567.985 -48.9862 578.559 -46.3642 589.628 -39.589C600.706 -32.8088 612.216 -21.9051 623.974 -7.22736C647.489 22.1273 671.844 66.3862 695.616 122.291C743.153 234.083 788.256 392.207 819.633 570.158C851.011 748.11 862.71 912.125 856.275 1033.43C853.058 1094.1 845.308 1144.02 833.251 1179.64C827.223 1197.46 820.136 1211.64 812.046 1221.8C803.961 1231.95 794.922 1238.03 784.969 1239.79C775.016 1241.54 764.442 1238.92 753.373 1232.15C742.296 1225.37 730.786 1214.46 719.028 1199.78C695.513 1170.43 671.157 1126.17 647.385 1070.27C599.848 958.474 554.745 800.349 523.368 622.398Z" stroke="#073954" stroke-opacity="0.05" stroke-width="2.28207"/>
<path opacity="0.344828" d="M521.654 604.162C505.906 424.153 508.546 259.743 525.529 139.457C534.022 79.3044 546.093 30.2498 561.209 -4.19068C568.768 -21.4114 577.064 -34.9227 586.009 -44.3388C594.947 -53.7479 604.481 -59.0173 614.549 -59.8982C624.617 -60.7791 634.923 -57.2455 645.359 -49.5313C655.803 -41.8115 666.319 -29.9461 676.753 -14.2995C697.62 16.9929 718.026 63.2062 736.835 120.97C774.447 236.48 805.597 397.933 821.346 577.942C837.094 757.951 834.454 922.361 817.471 1042.65C808.978 1102.8 796.908 1151.85 781.792 1186.29C774.233 1203.51 765.937 1217.03 756.992 1226.44C748.054 1235.85 738.519 1241.12 728.451 1242C718.383 1242.88 708.078 1239.35 697.642 1231.64C687.198 1223.92 676.681 1212.05 666.248 1196.4C645.381 1165.11 624.974 1118.9 606.165 1061.13C568.553 945.625 537.403 784.17 521.654 604.162Z" stroke="#073954" stroke-opacity="0.05" stroke-width="2.28207"/>
<path opacity="0.37931" d="M521.082 585.823C521.082 405.127 538.041 241.573 565.443 123.225C579.147 64.0415 595.448 16.2256 613.508 -16.7664C622.538 -33.2628 631.98 -45.9996 641.712 -54.6003C651.436 -63.1946 661.394 -67.6129 671.5 -67.613C681.607 -67.613 691.565 -63.1948 701.289 -54.6003C711.021 -45.9996 720.463 -33.2628 729.493 -16.7664C747.553 16.2256 763.853 64.0415 777.557 123.225C804.959 241.573 821.918 405.127 821.918 585.823C821.918 766.52 804.959 930.075 777.557 1048.42C763.854 1107.61 747.553 1155.42 729.493 1188.41C720.463 1204.91 711.021 1217.65 701.289 1226.25C691.565 1234.84 681.607 1239.26 671.5 1239.26C661.394 1239.26 651.436 1234.84 641.712 1226.25C631.98 1217.65 622.538 1204.91 613.508 1188.41C595.448 1155.42 579.146 1107.61 565.443 1048.42C538.041 930.075 521.082 766.52 521.082 585.823Z" stroke="#073954" stroke-opacity="0.05" stroke-width="2.28207"/>
<path opacity="0.413793" d="M521.655 567.487C537.404 387.478 568.553 226.024 606.165 110.515C624.975 52.7507 645.381 6.53748 666.248 -24.7549C676.682 -40.4015 687.198 -52.2669 697.642 -59.9867C708.079 -67.7007 718.383 -71.2345 728.451 -70.3537C738.519 -69.4729 748.054 -64.2035 756.993 -54.7943C765.938 -45.3781 774.234 -31.8669 781.792 -14.6461C796.908 19.7944 808.979 68.8489 817.472 129.001C834.455 249.288 837.095 413.697 821.346 593.706C805.597 773.715 774.448 935.169 736.835 1050.68C718.026 1108.44 697.621 1154.66 676.754 1185.95C666.32 1201.59 655.804 1213.46 645.359 1221.18C634.923 1228.89 624.618 1232.43 614.55 1231.55C604.482 1230.67 594.947 1225.4 586.009 1215.99C577.064 1206.57 568.768 1193.06 561.21 1175.84C546.094 1141.4 534.022 1092.34 525.529 1032.19C508.546 911.906 505.906 747.495 521.655 567.487Z" stroke="#073954" stroke-opacity="0.05" stroke-width="2.28207"/>
<path opacity="0.448276" d="M523.368 549.25C554.745 371.299 599.848 213.174 647.385 101.382C671.157 45.4775 695.513 1.21874 719.028 -28.1359C730.786 -42.8136 742.296 -53.7173 753.373 -60.4975C764.442 -67.2725 775.016 -69.8947 784.969 -68.1398C794.922 -66.3848 803.961 -60.3045 812.045 -50.152C820.136 -39.992 827.223 -25.8092 833.251 -7.99522C845.308 27.6317 853.057 77.5516 856.275 138.215C862.71 259.524 851.011 423.538 819.633 601.489C788.256 779.441 743.153 937.566 695.616 1049.36C671.844 1105.26 647.489 1149.52 623.974 1178.88C612.216 1193.55 600.706 1204.46 589.628 1211.24C578.559 1218.01 567.985 1220.63 558.032 1218.88C548.079 1217.12 539.041 1211.04 530.956 1200.89C522.866 1190.73 515.779 1176.55 509.751 1158.73C497.694 1123.11 489.943 1073.19 486.726 1012.52C480.291 891.216 491.99 727.201 523.368 549.25Z" stroke="#073954" stroke-opacity="0.05" stroke-width="2.28207"/>
<path opacity="0.482759" d="M526.208 531.215C572.976 356.676 631.688 203.084 688.787 95.8607C717.341 42.2406 745.462 0.272996 771.446 -26.9204C784.439 -40.5175 796.855 -50.3766 808.481 -56.1655C820.099 -61.9501 830.86 -63.6407 840.622 -61.0251C850.385 -58.4093 858.86 -51.5643 866.029 -40.7458C873.203 -29.9194 879.026 -15.1729 883.479 3.09877C892.385 39.6409 895.754 90.0462 893.673 150.76C889.51 272.168 863.561 434.538 816.793 609.077C770.026 783.617 711.313 937.209 654.214 1044.43C625.66 1098.05 597.54 1140.02 571.556 1167.21C558.564 1180.81 546.147 1190.67 534.521 1196.46C522.903 1202.24 512.141 1203.93 502.379 1201.32C492.617 1198.7 484.142 1191.86 476.973 1181.04C469.799 1170.21 463.976 1155.47 459.523 1137.19C450.617 1100.65 447.247 1050.25 449.328 989.534C453.491 868.126 479.44 705.755 526.208 531.215Z" stroke="#073954" stroke-opacity="0.05" stroke-width="2.28207"/>
<path opacity="0.517241" d="M530.153 513.472C591.955 343.673 663.83 195.783 730.057 93.9438C763.176 43.0163 794.848 3.65942 823.103 -21.1659C837.231 -33.5789 850.46 -42.3182 862.546 -47.0718C874.624 -51.8219 885.491 -52.5682 894.988 -49.1117C904.486 -45.655 912.332 -38.0973 918.53 -26.6953C924.734 -15.2848 929.25 -0.0867879 932.094 18.5034C937.781 55.6827 936.744 106.19 929.379 166.491C914.651 287.074 874.648 446.565 812.847 616.364C751.045 786.163 679.169 934.054 612.942 1035.89C579.824 1086.82 548.153 1126.18 519.898 1151C505.77 1163.41 492.541 1172.16 480.454 1176.91C468.377 1181.66 457.508 1182.4 448.011 1178.95C438.514 1175.49 430.669 1167.93 424.47 1156.53C418.267 1145.12 413.751 1129.92 410.907 1111.33C405.22 1074.15 406.256 1023.65 413.621 963.346C428.349 842.762 468.352 683.271 530.153 513.472Z" stroke="#073954" stroke-opacity="0.05" stroke-width="2.28207"/>
<path opacity="0.551724" d="M535.174 496.124C611.539 332.358 696.031 191.295 770.882 95.6154C808.313 47.7682 843.294 11.3215 873.606 -10.9468C888.762 -22.0812 902.702 -29.6343 915.156 -33.3165C927.602 -36.9958 938.493 -36.7921 947.653 -32.521C956.813 -28.2497 963.97 -20.037 969.152 -8.13808C974.337 3.76964 977.511 19.3034 978.724 38.0707C981.149 75.6042 975.714 125.829 963.121 185.258C937.94 304.099 884.189 459.496 807.824 623.263C731.458 787.03 646.967 928.093 572.116 1023.77C534.685 1071.62 499.704 1108.07 469.393 1130.33C454.237 1141.47 440.296 1149.02 427.842 1152.71C415.396 1156.38 404.504 1156.18 395.344 1151.91C386.185 1147.64 379.028 1139.43 373.846 1127.53C368.661 1115.62 365.487 1100.08 364.275 1081.32C361.849 1043.78 367.283 993.559 379.876 934.13C405.057 815.289 458.808 659.891 535.174 496.124Z" stroke="#073954" stroke-opacity="0.05" stroke-width="2.28207"/>
<path opacity="0.586207" d="M541.234 479.258C631.582 322.77 728.046 189.608 810.951 100.816C852.41 56.4134 890.435 23.1542 922.572 3.61243C938.641 -6.15871 953.186 -12.4681 965.914 -15.0507C978.633 -17.6314 989.465 -16.4791 998.218 -11.426C1006.97 -6.37267 1013.39 2.43262 1017.51 14.7379C1021.64 27.0522 1023.45 42.8035 1023.02 61.6051C1022.16 99.2071 1012.37 148.767 994.647 206.873C959.203 323.067 892.114 473.188 801.765 629.676C711.417 786.163 614.953 919.326 532.048 1008.12C490.589 1052.52 452.565 1085.78 420.428 1105.32C404.359 1115.09 389.814 1121.4 377.085 1123.99C364.367 1126.57 353.533 1125.41 344.781 1120.36C336.029 1115.31 329.614 1106.5 325.49 1094.2C321.363 1081.88 319.554 1066.13 319.982 1047.33C320.837 1009.73 330.628 960.167 348.352 902.061C383.796 785.867 450.886 635.745 541.234 479.258Z" stroke="#073954" stroke-opacity="0.05" stroke-width="2.28207"/>
<path opacity="0.62069" d="M548.285 462.965C651.928 314.948 759.631 190.7 849.959 109.471C895.13 68.8511 935.909 39.0325 969.627 22.366C986.486 14.0325 1001.53 9.01489 1014.43 7.55144C1027.33 6.08911 1038.02 8.18105 1046.3 13.9778C1054.57 19.7747 1060.2 29.1056 1063.23 41.7235C1066.27 54.3507 1066.7 70.1997 1064.64 88.8925C1060.51 126.277 1046.43 174.795 1023.71 231.135C978.277 343.797 898.358 487.5 794.715 635.518C691.072 783.536 583.369 907.784 493.04 989.013C447.869 1029.63 407.091 1059.45 373.374 1076.12C356.515 1084.45 341.474 1089.47 328.569 1090.93C315.674 1092.4 304.982 1090.3 296.704 1084.51C288.425 1078.71 282.803 1069.38 279.766 1056.76C276.728 1044.13 276.3 1028.28 278.364 1009.59C282.494 972.207 296.566 923.689 319.287 867.35C364.723 754.687 444.642 610.983 548.285 462.965Z" stroke="#073954" stroke-opacity="0.05" stroke-width="2.28207"/>
<path opacity="0.655172" d="M556.274 447.327C672.423 308.906 790.545 194.517 887.609 121.471C936.149 84.9421 979.372 58.7911 1014.41 45.1267C1031.93 38.2943 1047.36 34.6066 1060.34 34.2734C1073.31 33.9406 1083.78 36.9563 1091.52 43.4526C1099.26 49.949 1104.05 59.7344 1105.98 72.5689C1107.9 85.4129 1106.95 101.239 1103.26 119.681C1095.89 156.563 1077.64 203.669 1050.1 257.815C995.016 366.089 902.877 502.279 786.728 640.701C670.578 779.122 552.456 893.511 455.392 966.558C406.852 1003.09 363.631 1029.24 328.589 1042.9C311.067 1049.73 295.647 1053.42 282.663 1053.76C269.69 1054.09 259.221 1051.07 251.479 1044.58C243.737 1038.08 238.95 1028.29 237.025 1015.46C235.098 1002.62 236.053 986.79 239.739 968.348C247.111 931.466 265.358 884.359 292.903 830.214C347.985 721.94 440.125 585.749 556.274 447.327Z" stroke="#073954" stroke-opacity="0.05" stroke-width="2.28207"/>
<path opacity="0.689655" d="M565.139 432.427C692.91 304.655 820.552 200.997 923.614 136.688C975.152 104.529 1020.49 82.2445 1056.59 71.6862C1074.64 66.4069 1090.32 64.0771 1103.29 64.8768C1116.24 65.676 1126.4 69.5925 1133.55 76.7388C1140.7 83.8853 1144.61 94.0508 1145.41 107.004C1146.21 119.967 1143.88 135.65 1138.6 153.7C1128.04 189.8 1105.76 235.136 1073.6 286.675C1009.29 389.736 905.634 517.378 777.862 645.15C650.09 772.922 522.448 876.58 419.386 940.889C367.848 973.048 322.512 995.333 286.412 1005.89C268.362 1011.17 252.679 1013.5 239.716 1012.7C226.762 1011.9 216.597 1007.98 209.45 1000.84C202.304 993.692 198.387 983.527 197.588 970.574C196.789 957.611 199.119 941.927 204.398 923.877C214.957 887.778 237.24 842.441 269.4 790.902C333.709 687.841 437.367 560.198 565.139 432.427Z" stroke="#073954" stroke-opacity="0.05" stroke-width="2.28207"/>
<path opacity="0.724138" d="M574.813 418.335C713.235 302.186 849.425 210.047 957.699 154.965C1011.84 127.42 1058.95 109.172 1095.83 101.8C1114.28 98.1139 1130.1 97.1599 1142.95 99.0863C1155.78 101.011 1165.56 105.799 1172.06 113.541C1178.56 121.283 1181.57 131.751 1181.24 144.725C1180.91 157.708 1177.22 173.128 1170.39 190.65C1156.72 225.692 1130.57 268.914 1094.04 317.453C1021 414.517 906.608 532.639 768.187 648.789C629.765 764.938 493.574 857.077 385.3 912.159C331.155 939.704 284.049 957.953 247.167 965.324C228.725 969.011 212.898 969.965 200.054 968.039C187.22 966.114 177.434 961.325 170.938 953.583C164.442 945.841 161.426 935.373 161.759 922.4C162.092 909.417 165.78 893.996 172.613 876.475C186.277 841.433 212.427 798.21 248.956 749.671C322.003 652.607 436.392 534.484 574.813 418.335Z" stroke="#073954" stroke-opacity="0.05" stroke-width="2.28207"/>
<path opacity="0.758621" d="M585.222 405.12C733.24 301.477 876.943 221.558 989.606 176.123C1045.95 153.401 1094.46 139.328 1131.85 135.199C1150.54 133.134 1166.39 133.563 1179.02 136.602C1191.64 139.638 1200.97 145.26 1206.76 153.539C1212.56 161.818 1214.65 172.509 1213.19 185.405C1211.73 198.31 1206.71 213.35 1198.37 230.209C1181.71 263.926 1151.89 304.705 1111.27 349.876C1030.04 440.204 905.793 547.907 757.775 651.55C609.757 755.193 466.053 835.112 353.391 880.548C297.051 903.269 248.534 917.342 211.149 921.471C192.457 923.536 176.607 923.108 163.98 920.069C151.362 917.033 142.031 911.41 136.234 903.131C130.437 894.853 128.345 884.162 129.808 871.267C131.271 858.362 136.289 843.321 144.623 826.462C161.289 792.744 191.107 751.966 231.728 706.795C312.956 616.466 437.204 508.763 585.222 405.12Z" stroke="#073954" stroke-opacity="0.05" stroke-width="2.28207"/>
<path opacity="0.793103" d="M596.29 392.843C752.778 302.495 902.9 235.406 1019.09 199.962C1077.2 182.238 1126.76 172.447 1164.36 171.592C1183.16 171.164 1198.91 172.973 1211.23 177.1C1223.53 181.224 1232.34 187.639 1237.39 196.391C1242.45 205.144 1243.6 215.976 1241.02 228.695C1238.43 241.424 1232.13 255.969 1222.35 272.038C1202.81 304.174 1169.55 342.199 1125.15 383.658C1036.36 466.563 903.196 563.027 746.708 653.375C590.221 743.723 440.099 810.813 323.905 846.257C265.799 863.981 216.24 873.772 178.638 874.628C159.836 875.055 144.084 873.247 131.77 869.12C119.465 864.995 110.659 858.58 105.606 849.828C100.553 841.075 99.4007 830.243 101.981 817.524C104.564 804.796 110.874 790.25 120.645 774.181C140.187 742.045 173.446 704.02 217.848 662.561C306.64 579.656 439.803 483.192 596.29 392.843Z" stroke="#073954" stroke-opacity="0.05" stroke-width="2.28207"/>
<path opacity="0.827586" d="M607.931 381.557C771.697 305.192 927.094 251.441 1045.94 226.26C1105.36 213.667 1155.59 208.233 1193.12 210.658C1211.89 211.871 1227.42 215.045 1239.33 220.23C1251.23 225.412 1259.44 232.569 1263.71 241.728C1267.99 250.888 1268.19 261.78 1264.51 274.226C1260.83 286.68 1253.28 300.621 1242.14 315.777C1219.87 346.088 1183.43 381.069 1135.58 418.5C1039.9 493.351 898.836 577.842 735.069 654.207C571.303 730.573 415.905 784.324 297.064 809.505C237.635 822.098 187.41 827.533 149.877 825.108C131.11 823.895 115.575 820.721 103.667 815.536C91.7685 810.355 83.5556 803.197 79.2844 794.037C75.0134 784.878 74.8097 773.986 78.4889 761.541C82.1711 749.086 89.725 735.145 100.859 719.989C123.128 689.678 159.574 654.697 207.421 617.266C303.1 542.415 444.164 457.923 607.931 381.557Z" stroke="#073954" stroke-opacity="0.05" stroke-width="2.28207"/>
<path opacity="0.862069" d="M620.053 371.31C789.852 309.508 949.343 269.506 1069.93 254.778C1130.23 247.413 1180.73 246.377 1217.91 252.064C1236.5 254.908 1251.7 259.424 1263.11 265.627C1274.51 271.826 1282.07 279.671 1285.53 289.168C1288.99 298.666 1288.24 309.534 1283.49 321.612C1278.74 333.698 1270 346.927 1257.58 361.055C1232.76 389.31 1193.4 420.981 1142.47 454.099C1040.63 520.327 892.744 592.202 722.945 654.004C553.146 715.805 393.655 755.808 273.071 770.536C212.771 777.901 162.264 778.938 125.085 773.251C106.495 770.407 91.2959 765.891 79.8854 759.688C68.4834 753.489 60.9256 745.643 57.469 736.146C54.0125 726.649 54.7589 715.781 59.5088 703.703C64.2624 691.617 73.0026 678.388 85.4156 664.26C110.241 636.005 149.597 604.333 200.524 571.215C302.364 504.988 450.254 433.112 620.053 371.31Z" stroke="#073954" stroke-opacity="0.05" stroke-width="2.28207"/>
<path opacity="0.896552" d="M632.569 362.138C807.108 315.37 969.479 289.421 1090.89 285.258C1151.6 283.177 1202.01 286.547 1238.55 295.453C1256.82 299.906 1271.57 305.73 1282.39 312.904C1293.21 320.072 1300.06 328.547 1302.67 338.309C1305.29 348.071 1303.6 358.833 1297.81 370.451C1292.02 382.077 1282.16 394.494 1268.57 407.486C1241.37 433.47 1199.41 461.59 1145.79 490.144C1038.56 547.243 884.971 605.956 710.431 652.723C535.892 699.491 373.521 725.441 252.113 729.603C191.4 731.685 140.995 728.315 104.453 719.409C86.1812 714.956 71.4337 709.133 60.6073 701.959C49.789 694.79 42.9438 686.315 40.328 676.553C37.7124 666.791 39.4032 656.029 45.1876 644.412C50.9765 632.786 60.8364 620.369 74.4336 607.376C101.627 581.392 143.594 553.271 197.214 524.717C304.438 467.618 458.03 408.906 632.569 362.138Z" stroke="#073954" stroke-opacity="0.05" stroke-width="2.28207"/>
<path opacity="0.931035" d="M645.381 354.071C823.332 322.693 987.346 310.994 1108.66 317.429C1169.32 320.647 1219.24 328.397 1254.87 340.454C1272.68 346.483 1286.86 353.569 1297.02 361.66C1307.17 369.744 1313.26 378.783 1315.01 388.736C1316.77 398.689 1314.14 409.263 1307.37 420.332C1300.59 431.409 1289.68 442.919 1275.01 454.677C1245.65 478.192 1201.39 502.548 1145.49 526.32C1033.7 573.856 875.572 618.959 697.621 650.337C519.669 681.714 355.655 693.413 234.346 686.979C173.682 683.761 123.763 676.011 88.1361 663.954C70.3221 657.926 56.1383 650.839 45.9783 642.749C35.826 634.665 29.7455 625.625 27.9905 615.672C26.2356 605.719 28.8579 595.146 35.6328 584.077C42.413 572.999 53.3177 561.489 67.9954 549.731C97.35 526.216 141.608 501.86 197.513 478.088C309.305 430.551 467.43 385.449 645.381 354.071Z" stroke="#073954" stroke-opacity="0.05" stroke-width="2.28207"/>
<path opacity="0.965517" d="M658.39 347.134C838.399 331.385 1002.81 334.025 1123.09 351.008C1183.25 359.501 1232.3 371.572 1266.74 386.689C1283.96 394.247 1297.47 402.543 1306.89 411.488C1316.3 420.426 1321.57 429.96 1322.45 440.028C1323.33 450.097 1319.8 460.402 1312.08 470.838C1304.36 481.283 1292.5 491.799 1276.85 502.233C1245.56 523.1 1199.35 543.505 1141.58 562.314C1026.07 599.927 864.618 631.076 684.609 646.825C504.6 662.574 340.19 659.934 219.904 642.951C159.752 634.458 110.698 622.387 76.2572 607.271C59.0364 599.713 45.5243 591.417 36.1081 582.472C26.699 573.533 21.4295 563.998 20.5486 553.93C19.6679 543.862 23.2017 533.558 30.9156 523.121C38.6354 512.677 50.5017 502.161 66.1484 491.727C97.4407 470.86 143.653 450.453 201.417 431.644C316.927 394.032 478.381 362.882 658.39 347.134Z" stroke="#073954" stroke-opacity="0.05" stroke-width="2.28207"/>
<path d="M671.501 341.335C852.197 341.335 1015.75 358.294 1134.1 385.696C1193.28 399.399 1241.1 415.7 1274.09 433.76C1290.59 442.791 1303.32 452.233 1311.92 461.964C1320.52 471.689 1324.94 481.646 1324.94 491.753C1324.94 501.859 1320.52 511.817 1311.92 521.542C1303.32 531.273 1290.59 540.715 1274.09 549.746C1241.1 567.806 1193.28 584.106 1134.1 597.809C1015.75 625.211 852.197 642.17 671.501 642.17C490.804 642.17 327.25 625.211 208.901 597.809C149.718 584.106 101.903 567.806 68.9111 549.746C52.4146 540.715 39.6769 531.273 31.0762 521.542C22.4819 511.817 18.0635 501.859 18.0635 491.753C18.0636 481.646 22.4821 471.689 31.0762 461.964C39.6769 452.233 52.4146 442.791 68.9111 433.76C101.903 415.7 149.718 399.399 208.901 385.696C327.25 358.294 490.804 341.335 671.501 341.335Z" stroke="#073954" stroke-opacity="0.05" stroke-width="2.28207"/>
</svg>
